# Blender v2.92.0 OBJ File: 'ladder.blend'
# www.blender.org
mtllib stone.mtl
o model_rock_Plane.005
v -0.000873 0.018429 0.493767
v -0.071464 0.017361 0.424958
v -0.074158 0.081546 0.417595
v -0.020378 -0.002531 0.386097
v -0.248228 0.035719 0.143679
v -0.216145 0.183804 0.228464
v -0.154184 0.249046 0.245029
v 0.145868 0.142280 0.306372
v 0.108310 0.007886 0.213209
v -0.031924 0.235152 0.327300
v -0.091040 0.429292 0.088018
v 0.158172 0.034627 0.267085
v 0.127750 0.274065 0.270166
v 0.139368 0.402742 0.136943
v -0.012506 0.005762 0.078725
v -0.285200 0.078112 0.117127
v -0.136140 0.439490 0.030727
v -0.233854 0.237282 0.051518
v -0.248953 0.005595 -0.004714
v -0.233100 0.081092 -0.105222
v 0.263854 0.147762 0.111799
v 0.281742 0.288475 0.103977
v -0.088164 0.481383 0.001243
v 0.299136 0.201801 0.089562
v 0.202478 0.409676 0.086528
v 0.165903 0.054381 -0.000448
v 0.092471 0.463239 0.001344
v 0.311908 0.274097 0.015426
v 0.217685 0.417435 0.015127
v 0.066456 0.418326 -0.186646
v 0.018719 0.465029 -0.175129
v 0.283769 0.262409 -0.047832
v 0.267607 0.185490 -0.045844
v 0.138608 -0.011054 -0.160457
v -0.131927 0.450324 -0.062786
v -0.200221 0.177753 -0.164298
v 0.116398 -0.024413 -0.117050
v -0.084826 0.491405 -0.191235
v -0.092321 -0.014716 -0.231103
v -0.112010 0.054451 -0.269557
v -0.162578 0.377284 -0.258991
v -0.135476 0.446355 -0.327642
v -0.111223 0.247851 -0.255456
v -0.109007 0.476232 -0.377314
v -0.120126 0.390666 -0.348235
v 0.080907 0.240879 -0.211818
v 0.024029 0.343098 -0.266690
v -0.014265 0.495458 -0.304174
v -0.040303 0.011526 -0.265529
v -0.050545 0.245787 -0.273613
vt 0.566454 0.489357
vt 0.586849 0.567487
vt 0.515685 0.498660
vt 0.619247 0.483028
vt 0.392733 0.515099
vt 0.530926 0.293739
vt 0.385848 0.414578
vt 0.436770 0.373127
vt 0.139343 0.808421
vt 0.316527 0.862459
vt 0.362067 0.952873
vt 0.187839 0.743754
vt 0.333917 0.723644
vt 0.307075 0.587483
vt 0.250295 0.391472
vt 0.190942 0.516621
vt 0.371936 0.607583
vt 0.249844 0.326989
vt 0.482858 0.282593
vt 0.370450 0.272549
vt 0.207884 0.264827
vt 0.431731 0.149769
vt 0.509695 0.190179
vt 0.320991 0.783709
vt 0.452053 0.799150
vt 0.494236 0.900189
vt 0.188194 0.338279
vt 0.484186 0.837384
vt 0.548846 0.982369
vt 0.555951 0.861429
vt 0.602744 0.957356
vt 0.480417 0.695706
vt 0.557201 0.619086
vt 0.066933 0.519568
vt 0.012985 0.329202
vt 0.061066 0.300544
vt 0.119802 0.426565
vt 0.609226 0.831590
vt 0.595610 0.647946
vt 0.568112 0.781029
vt 0.111401 0.234747
vt 0.345158 0.130630
vt 0.191338 0.134169
vt 0.265474 0.057686
vt 0.427602 0.009563
vt 0.101763 0.121428
vt 0.045341 0.096068
vt 0.118641 0.067865
vt 0.725221 0.736285
vt 0.814752 0.778140
vt 0.013182 0.195659
vt 0.685620 0.571877
vt 0.813487 0.677420
vt 0.851133 0.632309
vt 0.950475 0.732539
vt 0.992884 0.792768
vt 0.655759 0.235962
vt 0.123913 0.546786
vt 0.495712 0.020461
vt 0.693880 0.041788
vt 0.786251 0.863375
vt 0.675465 0.514288
vt 0.917592 0.856992
vt 0.734116 0.534437
vn -0.6974 0.0527 0.7147
vn -0.2023 -0.9538 0.2223
vn -0.3321 0.5442 0.7704
vn -0.8457 0.0257 0.5331
vn -0.5146 0.4836 0.7080
vn 0.6557 0.2825 0.7002
vn 0.2630 -0.9548 0.1382
vn 0.1282 0.6156 0.7776
vn -0.3535 0.6818 0.6405
vn 0.0751 0.7140 0.6961
vn 0.0462 -0.9986 -0.0258
vn -0.7050 0.5586 0.4370
vn -0.9040 0.3757 0.2040
vn -0.8999 0.4359 0.0100
vn -0.9684 -0.1005 -0.2283
vn 0.8527 -0.0903 0.5145
vn 0.6924 0.2781 0.6657
vn -0.0104 0.8575 0.5144
vn 0.8110 -0.3310 0.4824
vn 0.6169 0.4919 0.6143
vn 0.8199 0.5394 0.1917
vn 0.7988 0.5556 0.2305
vn 0.3994 -0.8293 0.3908
vn 0.5766 0.6952 -0.4291
vn 0.3536 0.9251 -0.1384
vn 0.7557 0.4959 -0.4278
vn 0.7154 -0.6810 0.1565
vn 0.8029 -0.5871 0.1031
vn 0.7932 -0.1817 -0.5812
vn -0.4063 0.7893 0.4603
vn 0.0998 0.9936 0.0535
vn -0.9787 0.0993 -0.1799
vn -0.7344 0.0523 -0.6767
vn -0.7172 0.6960 0.0364
vn -0.8282 -0.3407 -0.4450
vn -0.8948 -0.0846 -0.4383
vn 0.6315 -0.0635 -0.7728
vn 0.6981 0.7159 -0.0096
vn 0.4250 -0.0127 -0.9051
vn -0.2878 -0.0456 -0.9566
vn -0.2585 -0.5375 -0.8026
vn 0.3748 -0.3416 -0.8619
vn -0.8668 -0.0557 -0.4955
vn 0.6548 -0.7549 -0.0368
vn -0.2828 -0.9522 0.1156
vn 0.8171 -0.1129 0.5653
vn 0.3251 -0.9318 0.1615
vn -0.0464 0.7701 0.6363
vn -0.7705 -0.3307 0.5450
vn -0.8158 -0.0715 0.5738
vn -0.5334 0.6541 0.5363
vn -0.8691 0.4427 0.2208
vn -0.7855 -0.6057 0.1268
vn -0.1342 -0.9905 -0.0302
vn -0.0695 -0.9776 0.1988
vn -0.9512 0.2162 -0.2200
vn 0.8065 0.0641 0.5877
vn 0.1188 0.9214 0.3700
vn 0.4443 0.6247 0.6421
vn 0.9246 -0.2994 -0.2355
vn 0.1935 -0.9682 -0.1585
vn 0.9440 0.1397 0.2989
vn 0.3220 0.9314 0.1698
vn -0.0570 -0.9951 0.0805
vn 0.7600 -0.6360 -0.1341
vn 0.8083 -0.5766 -0.1188
vn 0.6919 0.5046 -0.5163
vn -0.6351 0.7700 0.0606
vn -0.9580 0.2008 -0.2047
vn -0.7440 -0.4731 -0.4719
vn -0.6080 0.7933 0.0308
vn -0.8272 0.5620 0.0027
vn -0.8086 -0.0811 -0.5827
vn -0.9054 0.4243 -0.0165
vn 0.1231 -0.9270 -0.3543
vn 0.2601 0.9605 -0.0989
vn -0.5872 -0.2540 -0.7686
vn 0.6295 -0.0142 -0.7769
vn 0.6659 0.3342 -0.6670
vn 0.4087 -0.2507 -0.8776
vn 0.4996 -0.0617 -0.8640
vn 0.8461 0.0831 -0.5266
vn 0.2182 0.9608 0.1708
vn -0.2691 -0.5254 -0.8072
vn 0.0988 0.0720 -0.9925
vn 0.6156 -0.0389 -0.7871
vn -0.1535 0.9863 -0.0605
usemtl (null)
s off
f 2/1/1 1/2/1 3/3/1
f 1/2/2 2/1/2 4/4/2
f 1/2/3 10/5/3 3/3/3
f 2/1/4 3/3/4 5/6/4
f 10/5/5 7/7/5 6/8/5 3/3/5
f 1/9/6 8/10/6 13/11/6
f 1/9/7 4/12/7 9/13/7
f 13/14/8 10/5/8 1/2/8
f 7/7/9 10/5/9 11/15/9
f 10/5/10 13/14/10 14/16/10
f 9/13/11 4/12/11 15/17/11
f 7/7/12 17/18/12 6/8/12
f 16/19/13 6/8/13 18/20/13
f 17/18/14 35/21/14 18/20/14
f 20/22/15 19/23/15 16/19/15
f 8/10/16 12/24/16 21/25/16
f 13/11/17 8/10/17 22/26/17
f 14/16/18 23/27/18 11/15/18
f 8/10/19 21/25/19 24/28/19
f 13/11/20 22/26/20 25/29/20
f 22/26/21 28/30/21 29/31/21
f 25/29/22 22/26/22 29/31/22
f 26/32/23 15/17/23 37/33/23
f 29/34/24 30/35/24 31/36/24
f 27/37/25 29/34/25 31/36/25
f 28/30/26 32/38/26 29/31/26
f 37/33/27 34/39/27 26/32/27
f 33/40/28 26/32/28 34/39/28
f 32/38/29 33/40/29 34/39/29
f 11/15/30 23/27/30 17/18/30
f 23/27/31 27/37/31 38/41/31
f 36/42/32 18/20/32 41/43/32
f 43/44/33 40/45/33 36/42/33
f 42/46/34 38/41/34 44/47/34
f 43/44/35 41/43/35 45/48/35
f 45/48/36 41/43/36 42/46/36
f 32/38/37 46/49/37 47/50/37
f 31/36/38 30/35/38 48/51/38
f 46/49/39 49/52/39 50/53/39
f 49/52/40 43/54/40 50/53/40
f 50/53/41 43/54/41 45/55/41
f 47/50/42 45/55/42 44/56/42
f 45/48/43 42/46/43 44/47/43
f 21/25/44 12/24/44 9/13/44 26/32/44
f 4/4/45 2/1/45 5/6/45
f 8/10/46 1/9/46 12/24/46
f 12/24/47 1/9/47 9/13/47
f 10/5/48 14/16/48 11/15/48
f 5/6/49 3/3/49 16/19/49
f 16/19/50 3/3/50 6/8/50
f 7/7/51 11/15/51 17/18/51
f 6/8/52 17/18/52 18/20/52
f 19/23/53 5/6/53 16/19/53
f 15/57/54 4/4/54 5/6/54
f 15/57/55 5/6/55 19/23/55
f 20/22/56 16/19/56 18/20/56
f 22/26/57 8/10/57 24/28/57
f 27/37/58 23/27/58 14/16/58 25/58/58
f 14/16/59 13/14/59 25/58/59
f 33/40/60 32/38/60 28/30/60 24/28/60
f 26/32/61 9/13/61 15/17/61
f 28/30/62 22/26/62 24/28/62
f 27/37/63 25/58/63 29/34/63
f 19/23/64 39/59/64 37/60/64 15/57/64
f 21/25/65 26/32/65 33/40/65
f 33/40/66 24/28/66 21/25/66
f 30/61/67 29/31/67 32/38/67
f 17/18/68 23/27/68 35/21/68
f 36/42/69 20/22/69 18/20/69
f 20/22/70 40/45/70 39/59/70 19/23/70
f 35/21/71 23/27/71 38/41/71
f 38/41/72 42/46/72 41/43/72 35/21/72
f 40/45/73 20/22/73 36/42/73
f 41/43/74 18/20/74 35/21/74
f 37/33/75 39/62/75 49/52/75 34/39/75
f 38/41/76 27/37/76 31/36/76
f 43/44/77 36/42/77 41/43/77
f 32/38/78 34/39/78 46/49/78
f 30/61/79 32/38/79 47/50/79
f 50/53/80 45/55/80 47/50/80 46/49/80
f 46/49/81 34/39/81 49/52/81
f 48/63/82 30/61/82 47/50/82
f 38/41/83 31/36/83 48/51/83
f 49/52/84 39/62/84 40/64/84
f 49/52/85 40/64/85 43/54/85
f 48/63/86 47/50/86 44/56/86
f 44/47/87 38/41/87 48/51/87
