# Blender v2.92.0 OBJ File: 'ladder.blend'
# www.blender.org
mtllib tuberCorner.mtl
o tubeU.001_BezierCurve.001
v -1.020441 0.226981 0.793460
v -1.114460 0.000000 0.793460
v -1.020442 -0.226981 0.793460
v -0.472460 -0.000000 0.793460
v -0.793460 0.321000 0.793460
v -1.020442 -0.226981 0.749853
v -1.114460 0.000000 0.749853
v -0.793460 0.321000 0.749853
v -1.020441 0.226981 0.749853
v -0.566479 0.226981 0.749853
v -0.793460 -0.321000 0.749853
v -1.004563 0.226981 0.362457
v -1.095858 0.000000 0.339988
v -1.004563 -0.226981 0.362457
v -0.784159 -0.321000 0.416701
v -0.563755 -0.226981 0.470945
v -0.472460 -0.000000 0.493414
v -0.563755 0.226981 0.470945
v -0.784159 0.321000 0.416701
v -0.566479 -0.226981 0.749853
v -0.472460 -0.000000 0.749853
v -0.793460 -0.321000 0.793460
v -0.566479 -0.226981 0.793460
v -0.566479 0.226981 0.793460
v -1.146560 0.000000 0.793460
v -1.043140 -0.249679 0.793460
v -1.043140 0.249679 0.793460
v -0.793460 0.353100 0.793460
v -0.543781 -0.249680 0.749853
v -0.793460 -0.353100 0.749853
v -0.543781 0.249679 0.749853
v -0.440360 -0.000000 0.749853
v -0.793460 0.353100 0.749853
v -0.793460 -0.353100 0.793460
v -0.543781 -0.249680 0.793460
v -0.543781 0.249679 0.793460
v -0.440360 -0.000000 0.793460
v -1.146560 0.000000 0.749853
v -1.043140 0.249679 0.749853
v -1.043140 -0.249679 0.749853
v -1.000049 -0.208281 0.748794
v -1.086322 0.000000 0.748794
v -0.791767 0.294554 0.748794
v -1.000049 0.208281 0.748794
v -0.583486 0.208281 0.748794
v -0.791768 -0.294554 0.748794
v -0.982831 0.208281 0.368767
v -1.066605 0.000000 0.348149
v -0.982832 -0.208281 0.368767
v -0.780585 -0.294554 0.418542
v -0.578339 -0.208281 0.468317
v -0.494566 -0.000000 0.488935
v -0.578339 0.208281 0.468317
v -0.780585 0.294554 0.418542
v -0.583486 -0.208281 0.748794
v -0.497213 -0.000000 0.748794
v -0.994022 0.200561 0.793460
v -1.077097 0.000000 0.793460
v -0.994022 -0.200561 0.793460
v -0.509823 -0.000000 0.793460
v -0.793460 0.283637 0.793460
v -0.793460 -0.283637 0.793460
v -0.592899 -0.200562 0.793460
v -0.592899 0.200561 0.793460
v 0.000000 0.226981 -0.226982
v 0.000000 0.000000 -0.321001
v 0.000000 -0.226981 -0.226982
v 0.000000 -0.000000 0.321000
v 0.000000 0.321000 -0.000000
v -0.043607 -0.226981 -0.226982
v -0.043607 0.000000 -0.321001
v -0.043607 0.321000 -0.000000
v -0.043607 0.226981 -0.226982
v -0.043607 0.226981 0.226981
v -0.043607 -0.321000 -0.000001
v -0.804297 0.226981 -0.010837
v -0.870778 0.000000 -0.077318
v -0.804297 -0.226981 -0.010837
v -0.643798 -0.321000 0.149662
v -0.483299 -0.226981 0.310161
v -0.416818 -0.000000 0.376642
v -0.483298 0.226981 0.310161
v -0.643798 0.321000 0.149662
v -0.431003 0.226981 -0.211103
v -0.453472 0.000000 -0.302398
v -0.431003 -0.226981 -0.211104
v -0.376759 -0.321000 0.009301
v -0.322515 -0.226981 0.229705
v -0.300046 -0.000000 0.321000
v -0.322514 0.226981 0.229705
v -0.376759 0.321000 0.009301
v -0.043607 -0.226981 0.226981
v -0.043607 -0.000000 0.321000
v 0.000000 -0.321000 -0.000001
v 0.000000 -0.226981 0.226981
v 0.000000 0.226981 0.226981
v 0.000000 0.000000 -0.353100
v 0.000000 -0.249679 -0.249680
v 0.000000 0.249680 -0.249680
v 0.000000 0.353100 -0.000000
v -0.043607 -0.249680 0.249679
v -0.043607 -0.353100 -0.000001
v -0.043607 0.249679 0.249679
v -0.043607 -0.000000 0.353100
v -0.043607 0.353100 -0.000000
v 0.000000 -0.353100 -0.000001
v 0.000000 -0.249680 0.249679
v 0.000000 0.249679 0.249679
v 0.000000 -0.000000 0.353100
v -0.043607 0.000000 -0.353100
v -0.043607 0.249680 -0.249680
v -0.043607 -0.249679 -0.249680
v -0.044666 -0.208281 -0.206589
v -0.044666 0.000000 -0.292862
v -0.044666 0.294554 0.001692
v -0.044666 0.208281 -0.206589
v -0.044666 0.208281 0.209973
v -0.044666 -0.294554 0.001692
v -0.790368 0.208281 0.003092
v -0.851372 0.000000 -0.057912
v -0.790368 -0.208281 0.003092
v -0.643092 -0.294554 0.150368
v -0.495815 -0.208281 0.297644
v -0.434812 -0.000000 0.358648
v -0.495815 0.208281 0.297644
v -0.643092 0.294554 0.150368
v -0.424693 0.208281 -0.189372
v -0.445310 0.000000 -0.273145
v -0.424693 -0.208281 -0.189372
v -0.374918 -0.294554 0.012874
v -0.325142 -0.208281 0.215120
v -0.304525 -0.000000 0.298893
v -0.325142 0.208281 0.215120
v -0.374918 0.294554 0.012875
v -0.044666 -0.208281 0.209973
v -0.044666 -0.000000 0.296246
v 0.000000 0.200562 -0.200562
v 0.000000 0.000000 -0.283637
v 0.000000 -0.200561 -0.200562
v 0.000000 -0.000000 0.283636
v 0.000000 0.283637 -0.000000
v 0.000000 -0.283637 -0.000001
v 0.000000 -0.200562 0.200561
v 0.000000 0.200561 0.200561
vt 0.796517 0.728163
vt 0.878111 0.810698
vt 0.865302 0.845017
vt 0.763413 0.743129
vt 0.875883 0.868798
vt 0.788517 0.956682
vt 0.763413 0.946908
vt 0.865300 0.845019
vt 0.880732 0.530566
vt 0.795458 0.610695
vt 0.763413 0.599039
vt 0.865299 0.497150
vt 0.498999 0.117064
vt 0.492434 0.300822
vt 0.369626 0.273593
vt 0.378874 0.117095
vt 0.609357 0.117023
vt 0.606937 0.310476
vt 0.720427 0.117002
vt 0.720517 0.306044
vt 0.840980 0.117034
vt 0.839813 0.284872
vt -0.111033 0.117020
vt -0.094217 0.242891
vt -0.238360 0.281248
vt -0.264238 0.117034
vt 0.065631 0.117012
vt 0.068539 0.224111
vt 0.236927 0.117040
vt 0.229207 0.240189
vt 0.471201 0.475260
vt 0.345542 0.436276
vt 0.605117 0.497146
vt 0.740496 0.486708
vt 0.869869 0.461208
vt -0.052266 0.404757
vt -0.175916 0.447540
vt 0.083288 0.387564
vt 0.219339 0.399983
vt 0.875038 1.168071
vt 0.998736 1.168515
vt 1.009394 1.192887
vt 0.865301 1.192887
vt 0.999901 0.869818
vt 1.009392 0.845017
vt 0.787104 1.080534
vt 0.763413 1.090999
vt 0.996930 0.531076
vt 1.009392 0.497147
vt 1.240987 0.457380
vt 1.217737 0.457380
vt 1.217737 0.313288
vt 1.240988 0.313289
vt 1.240988 0.601472
vt 1.217737 0.601472
vt 1.240988 0.745565
vt 1.217737 0.745565
vt 1.240988 0.889658
vt 1.217738 0.889658
vt 1.240988 -0.118986
vt 1.217738 -0.118986
vt 1.217738 -0.263078
vt 1.240988 -0.263078
vt 1.240988 0.025105
vt 1.217738 0.025105
vt 1.240988 0.169197
vt 1.217737 0.169197
vt 0.994989 0.814171
vt 1.009393 0.845017
vt 1.086518 1.081424
vt 1.111281 1.090998
vt 1.086925 0.957751
vt 1.111281 0.946906
vt 1.077265 0.730207
vt 1.078359 0.613961
vt 1.111282 0.599036
vt 1.111282 0.743128
vt 0.446160 0.877530
vt 0.438711 1.038642
vt 0.324412 1.018572
vt 0.332693 0.877372
vt 0.548505 0.877655
vt 0.544505 1.048936
vt 0.652003 0.877798
vt 0.648970 1.051027
vt 0.763413 0.877921
vt 0.756632 1.052225
vt -0.127318 0.876798
vt -0.108498 1.004671
vt -0.236833 1.048101
vt -0.264238 0.876618
vt 0.036800 0.877020
vt 0.042843 0.984863
vt 0.198026 0.877206
vt 0.192648 0.994724
vt 0.424155 1.194557
vt 0.312058 1.168378
vt 0.534611 1.211306
vt 0.647115 1.214962
vt 0.762510 1.233801
vt -0.064128 1.156582
vt -0.175128 1.220982
vt 0.064801 1.138197
vt 0.192613 1.143430
vt 1.053808 0.973145
vt 0.987064 0.904002
vt 0.887839 1.133936
vt 0.983684 1.135321
vt 0.890733 0.899881
vt 0.823598 0.970262
vt 0.818219 1.066026
vt 1.052387 1.068826
vt -0.051215 1.205504
vt -0.165461 1.244686
vt 0.070004 1.189147
vt 0.191740 1.193295
vt 0.306916 1.214230
vt 0.418547 1.237912
vt 0.530412 1.252929
vt 0.643632 1.257601
vt 0.759306 1.258685
vt 1.183764 0.199502
vt 1.217737 0.186681
vt 1.217737 0.330773
vt 1.184403 0.315552
vt 0.981104 -0.238780
vt 0.971755 -0.263076
vt 1.115848 -0.263078
vt 1.105003 -0.238419
vt 0.984479 0.119347
vt 0.971756 0.084793
vt 1.115849 0.084793
vt 1.101431 0.115699
vt 0.369585 -0.039483
vt 0.492408 -0.066691
vt 0.606929 -0.076400
vt 0.720511 -0.072033
vt 0.839813 -0.050804
vt -0.238360 -0.047181
vt -0.094249 -0.008862
vt 0.068500 0.009955
vt 0.229161 -0.006105
vt 0.345542 -0.202207
vt 0.471201 -0.241192
vt 0.605117 -0.263078
vt 0.740496 -0.252639
vt 0.869869 -0.227139
vt -0.175916 -0.213473
vt -0.052265 -0.170690
vt 0.083289 -0.153496
vt 0.219339 -0.165915
vt 1.193309 -0.027766
vt 1.217737 -0.017096
vt 1.115849 0.084792
vt 1.106158 0.060018
vt 0.894123 -0.150349
vt 0.869869 -0.161187
vt 1.193582 -0.151828
vt 1.217737 -0.161189
vt 0.902674 0.201861
vt 0.869869 0.186681
vt 1.264238 0.169197
vt 1.264238 0.313289
vt 1.240988 0.313289
vt 1.240988 0.169197
vt 1.264238 0.025105
vt 1.240988 0.025105
vt 1.264238 -0.118987
vt 1.240988 -0.118987
vt 1.264239 -0.263078
vt 1.240988 -0.263078
vt 1.264239 0.745565
vt 1.264239 0.889657
vt 1.240988 0.889657
vt 1.240988 0.745565
vt 1.264239 0.601473
vt 1.240988 0.601473
vt 1.264238 0.457381
vt 1.240988 0.457381
vt 1.115850 0.432660
vt 1.104222 0.400672
vt 0.971758 0.084792
vt 0.982495 0.060511
vt 0.894765 -0.026644
vt 0.869869 -0.017096
vt 0.986670 0.399477
vt 0.971758 0.432661
vt 0.869870 0.330773
vt 0.903718 0.318042
vt 0.324717 0.736150
vt 0.439068 0.716400
vt 0.544910 0.706320
vt 0.649416 0.704520
vt 0.757074 0.703599
vt -0.236398 0.705204
vt -0.108160 0.748939
vt 0.043086 0.769140
vt 0.192845 0.759714
vt 0.312812 0.586319
vt 0.424963 0.560416
vt 0.535459 0.543950
vt 0.647973 0.540579
vt 0.763413 0.522039
vt -0.174255 0.532480
vt -0.063415 0.597158
vt 0.065473 0.615843
vt 0.193292 0.610964
vt 0.927373 -0.135265
vt 0.929063 -0.039186
vt 1.093324 0.025906
vt 1.160112 -0.042854
vt 1.089789 -0.204010
vt 0.992584 -0.206295
vt 1.161310 -0.140081
vt 0.997719 0.027489
vt -0.164527 0.508801
vt -0.050382 0.548273
vt 0.070796 0.564937
vt 0.192542 0.561098
vt 0.307770 0.540455
vt 0.419461 0.517056
vt 0.531363 0.502323
vt 0.644595 0.497938
vt 0.760271 0.497146
vn -0.0000 -0.0000 -1.0000
vn 0.0000 -0.0000 1.0000
vn -0.3489 0.9186 -0.1856
vn -0.8180 0.3705 -0.4401
vn -0.8180 -0.3705 -0.4401
vn -0.3489 -0.9186 -0.1856
vn 0.3512 -0.9186 0.1813
vn 0.8341 -0.3700 0.4090
vn 0.8341 0.3700 0.4090
vn 0.3512 0.9186 0.1813
vn -0.3860 0.9224 -0.0135
vn -0.9244 0.3793 -0.0400
vn -0.9244 -0.3793 -0.0400
vn -0.3860 -0.9224 -0.0135
vn 0.3867 -0.9222 0.0076
vn 0.9257 -0.3781 0.0047
vn 0.9257 0.3781 0.0047
vn 0.3867 0.9222 0.0076
vn -0.3827 0.9239 0.0000
vn -0.9239 0.3827 0.0000
vn -0.9239 -0.3827 0.0000
vn -0.3827 -0.9239 0.0000
vn 0.3827 -0.9239 0.0000
vn 0.9239 -0.3827 0.0000
vn 0.9239 0.3827 0.0000
vn 0.3827 0.9239 0.0000
vn -0.3506 0.9186 -0.1825
vn -0.8213 0.3705 -0.4339
vn -0.8213 -0.3705 -0.4339
vn -0.3506 -0.9186 -0.1825
vn 0.3535 -0.9185 0.1772
vn 0.8400 -0.3698 0.3971
vn 0.8400 0.3698 0.3971
vn 0.3535 0.9185 0.1772
vn -0.3858 0.9224 -0.0154
vn -0.9242 0.3794 -0.0437
vn -0.9242 -0.3794 -0.0437
vn -0.3858 -0.9224 -0.0154
vn 0.3864 -0.9223 0.0103
vn 0.9255 -0.3785 0.0134
vn 0.9255 0.3785 0.0134
vn 0.3864 0.9223 0.0103
vn 0.3721 -0.8983 0.2337
vn 0.8940 -0.3703 0.2524
vn 0.8940 0.3703 0.2524
vn 0.3721 0.8983 0.2337
vn -0.3744 0.9039 0.2067
vn -0.9075 0.3759 0.1874
vn -0.9075 -0.3759 0.1874
vn -0.3744 -0.9039 0.2067
vn -1.0000 0.0000 0.0000
vn 1.0000 0.0000 0.0000
vn -0.1856 0.9186 -0.3489
vn -0.4401 0.3705 -0.8180
vn -0.4401 -0.3705 -0.8180
vn -0.1856 -0.9186 -0.3489
vn 0.1813 -0.9186 0.3512
vn 0.4090 -0.3700 0.8341
vn 0.4090 0.3700 0.8341
vn 0.1813 0.9186 0.3512
vn -0.0135 0.9224 -0.3860
vn -0.0400 0.3793 -0.9244
vn -0.0400 -0.3793 -0.9244
vn -0.0135 -0.9224 -0.3860
vn 0.0076 -0.9222 0.3867
vn 0.0047 -0.3781 0.9257
vn 0.0047 0.3781 0.9257
vn 0.0076 0.9222 0.3867
vn -0.0000 0.9239 -0.3827
vn -0.0000 0.3827 -0.9239
vn -0.0000 -0.3827 -0.9239
vn -0.0000 -0.9239 -0.3827
vn 0.0000 -0.9239 0.3827
vn 0.0000 -0.3827 0.9239
vn -0.0000 0.3827 0.9239
vn -0.0000 0.9239 0.3827
vn -0.1825 0.9186 -0.3506
vn -0.4339 0.3705 -0.8213
vn -0.4339 -0.3705 -0.8213
vn -0.1825 -0.9186 -0.3506
vn 0.1772 -0.9185 0.3535
vn 0.3971 -0.3698 0.8400
vn 0.3971 0.3698 0.8400
vn 0.1772 0.9185 0.3535
vn -0.0154 0.9224 -0.3858
vn -0.0437 0.3794 -0.9242
vn -0.0437 -0.3794 -0.9242
vn -0.0154 -0.9224 -0.3858
vn 0.0103 -0.9223 0.3864
vn 0.0134 -0.3785 0.9255
vn 0.0134 0.3785 0.9255
vn 0.0103 0.9223 0.3864
vn 0.2337 -0.8983 0.3721
vn 0.2524 -0.3703 0.8940
vn 0.2524 0.3703 0.8940
vn 0.2337 0.8983 0.3721
vn 0.2067 0.9039 -0.3744
vn 0.1874 0.3759 -0.9075
vn 0.1874 -0.3759 -0.9075
vn 0.2067 -0.9039 -0.3744
usemtl UVgrid
s off
f 21/1/1 10/2/1 31/3/1 32/4/1
f 22/5/2 3/6/2 26/7/2 34/8/2
f 11/9/1 20/10/1 29/11/1 30/12/1
f 76/13/3 12/14/3 19/15/3 83/16/3
f 77/17/4 13/18/4 12/14/4 76/13/4
f 78/19/5 14/20/5 13/18/5 77/17/5
f 79/21/6 15/22/6 14/20/6 78/19/6
f 80/23/7 16/24/7 15/25/7 79/26/7
f 81/27/8 17/28/8 16/24/8 80/23/8
f 82/29/9 18/30/9 17/28/9 81/27/9
f 83/16/10 19/15/10 18/30/10 82/29/10
f 12/14/11 9/31/11 8/32/11 19/15/11
f 13/18/12 7/33/12 9/31/12 12/14/12
f 14/20/13 6/34/13 7/33/13 13/18/13
f 15/22/14 11/35/14 6/34/14 14/20/14
f 16/24/15 20/36/15 11/37/15 15/25/15
f 17/28/16 21/38/16 20/36/16 16/24/16
f 18/30/17 10/39/17 21/38/17 17/28/17
f 19/15/18 8/32/18 10/39/18 18/30/18
f 1/40/2 5/41/2 28/42/2 27/43/2
f 23/44/2 22/5/2 34/8/2 35/45/2
f 2/46/2 1/40/2 27/43/2 25/47/2
f 6/48/1 11/9/1 30/12/1 40/49/1
f 39/50/19 27/51/19 28/52/19 33/53/19
f 38/54/20 25/55/20 27/51/20 39/50/20
f 40/56/21 26/57/21 25/55/21 38/54/21
f 30/58/22 34/59/22 26/57/22 40/56/22
f 29/60/23 35/61/23 34/62/23 30/63/23
f 32/64/24 37/65/24 35/61/24 29/60/24
f 31/66/25 36/67/25 37/65/25 32/64/25
f 33/53/26 28/52/26 36/67/26 31/66/26
f 10/2/1 8/68/1 33/69/1 31/3/1
f 20/10/1 21/1/1 32/4/1 29/11/1
f 5/41/2 24/70/2 36/71/2 28/42/2
f 4/72/2 23/44/2 35/45/2 37/73/2
f 24/70/2 4/72/2 37/73/2 36/71/2
f 9/74/1 7/75/1 38/76/1 39/77/1
f 7/75/1 6/48/1 40/49/1 38/76/1
f 3/6/2 2/46/2 25/47/2 26/7/2
f 8/68/1 9/74/1 39/77/1 33/69/1
f 119/78/27 47/79/27 54/80/27 126/81/27
f 120/82/28 48/83/28 47/79/28 119/78/28
f 121/84/29 49/85/29 48/83/29 120/82/29
f 122/86/30 50/87/30 49/85/30 121/84/30
f 123/88/31 51/89/31 50/90/31 122/91/31
f 124/92/32 52/93/32 51/89/32 123/88/32
f 125/94/33 53/95/33 52/93/33 124/92/33
f 126/81/34 54/80/34 53/95/34 125/94/34
f 47/79/35 44/96/35 43/97/35 54/80/35
f 48/83/36 42/98/36 44/96/36 47/79/36
f 49/85/37 41/99/37 42/98/37 48/83/37
f 50/87/38 46/100/38 41/99/38 49/85/38
f 51/89/39 55/101/39 46/102/39 50/90/39
f 52/93/40 56/103/40 55/101/40 51/89/40
f 53/95/41 45/104/41 56/103/41 52/93/41
f 54/80/42 43/97/42 45/104/42 53/95/42
f 23/44/2 4/72/2 60/105/2 63/106/2
f 5/41/2 1/40/2 57/107/2 61/108/2
f 3/6/2 22/5/2 62/109/2 59/110/2
f 2/46/2 3/6/2 59/110/2 58/111/2
f 4/72/2 24/70/2 64/112/2 60/105/2
f 24/70/2 5/41/2 61/108/2 64/112/2
f 1/40/2 2/46/2 58/111/2 57/107/2
f 22/5/2 23/44/2 63/106/2 62/109/2
f 55/101/43 63/113/43 62/114/43 46/102/43
f 56/103/44 60/115/44 63/113/44 55/101/44
f 45/104/45 64/116/45 60/115/45 56/103/45
f 43/97/46 61/117/46 64/116/46 45/104/46
f 44/96/47 57/118/47 61/117/47 43/97/47
f 42/98/48 58/119/48 57/118/48 44/96/48
f 41/99/49 59/120/49 58/119/49 42/98/49
f 46/100/50 62/121/50 59/120/50 41/99/50
f 93/122/51 104/123/51 103/124/51 74/125/51
f 94/126/52 106/127/52 98/128/52 67/129/52
f 75/130/51 102/131/51 101/132/51 92/133/51
f 76/13/53 83/16/53 91/134/53 84/135/53
f 77/17/54 76/13/54 84/135/54 85/136/54
f 78/19/55 77/17/55 85/136/55 86/137/55
f 79/21/56 78/19/56 86/137/56 87/138/56
f 80/23/57 79/26/57 87/139/57 88/140/57
f 81/27/58 80/23/58 88/140/58 89/141/58
f 82/29/59 81/27/59 89/141/59 90/142/59
f 83/16/60 82/29/60 90/142/60 91/134/60
f 84/135/61 91/134/61 72/143/61 73/144/61
f 85/136/62 84/135/62 73/144/62 71/145/62
f 86/137/63 85/136/63 71/145/63 70/146/63
f 87/138/64 86/137/64 70/146/64 75/147/64
f 88/140/65 87/139/65 75/148/65 92/149/65
f 89/141/66 88/140/66 92/149/66 93/150/66
f 90/142/67 89/141/67 93/150/67 74/151/67
f 91/134/68 90/142/68 74/151/68 72/143/68
f 65/152/52 99/153/52 100/154/52 69/155/52
f 95/156/52 107/157/52 106/127/52 94/126/52
f 66/158/52 97/159/52 99/153/52 65/152/52
f 70/160/51 112/161/51 102/131/51 75/130/51
f 111/162/69 105/163/69 100/164/69 99/165/69
f 110/166/70 111/162/70 99/165/70 97/167/70
f 112/168/71 110/166/71 97/167/71 98/169/71
f 102/170/72 112/168/72 98/169/72 106/171/72
f 101/172/73 102/173/73 106/174/73 107/175/73
f 104/176/74 101/172/74 107/175/74 109/177/74
f 103/178/75 104/176/75 109/177/75 108/179/75
f 105/163/76 103/178/76 108/179/76 100/164/76
f 74/125/51 103/124/51 105/180/51 72/181/51
f 92/133/51 101/132/51 104/123/51 93/122/51
f 69/155/52 100/154/52 108/182/52 96/183/52
f 68/184/52 109/185/52 107/157/52 95/156/52
f 96/183/52 108/182/52 109/185/52 68/184/52
f 73/186/51 111/187/51 110/188/51 71/189/51
f 71/189/51 110/188/51 112/161/51 70/160/51
f 67/129/52 98/128/52 97/159/52 66/158/52
f 72/181/51 105/180/51 111/187/51 73/186/51
f 119/78/77 126/81/77 134/190/77 127/191/77
f 120/82/78 119/78/78 127/191/78 128/192/78
f 121/84/79 120/82/79 128/192/79 129/193/79
f 122/86/80 121/84/80 129/193/80 130/194/80
f 123/88/81 122/91/81 130/195/81 131/196/81
f 124/92/82 123/88/82 131/196/82 132/197/82
f 125/94/83 124/92/83 132/197/83 133/198/83
f 126/81/84 125/94/84 133/198/84 134/190/84
f 127/191/85 134/190/85 115/199/85 116/200/85
f 128/192/86 127/191/86 116/200/86 114/201/86
f 129/193/87 128/192/87 114/201/87 113/202/87
f 130/194/88 129/193/88 113/202/88 118/203/88
f 131/196/89 130/195/89 118/204/89 135/205/89
f 132/197/90 131/196/90 135/205/90 136/206/90
f 133/198/91 132/197/91 136/206/91 117/207/91
f 134/190/92 133/198/92 117/207/92 115/199/92
f 95/156/52 143/208/52 140/209/52 68/184/52
f 69/155/52 141/210/52 137/211/52 65/152/52
f 67/129/52 139/212/52 142/213/52 94/126/52
f 66/158/52 138/214/52 139/212/52 67/129/52
f 68/184/52 140/209/52 144/215/52 96/183/52
f 96/183/52 144/215/52 141/210/52 69/155/52
f 65/152/52 137/211/52 138/214/52 66/158/52
f 94/126/52 142/213/52 143/208/52 95/156/52
f 135/205/93 118/204/93 142/216/93 143/217/93
f 136/206/94 135/205/94 143/217/94 140/218/94
f 117/207/95 136/206/95 140/218/95 144/219/95
f 115/199/96 117/207/96 144/219/96 141/220/96
f 116/200/97 115/199/97 141/220/97 137/221/97
f 114/201/98 116/200/98 137/221/98 138/222/98
f 113/202/99 114/201/99 138/222/99 139/223/99
f 118/203/100 113/202/100 139/223/100 142/224/100
