# Blender v2.92.0 OBJ File: 'ladder.blend'
# www.blender.org
mtllib tubeU.mtl
o BezierCurve
v -0.000000 0.226982 -1.840436
v -0.000000 0.000000 -1.934454
v -0.000000 -0.226981 -1.840436
v 0.000000 -0.321000 -1.613455
v -0.000000 -0.226981 -1.386473
v -0.000000 0.000000 -1.292454
v -0.000000 0.226981 -1.386473
v -0.000000 0.321000 -1.613454
v 0.000000 0.226981 1.840436
v 0.000000 -0.000000 1.934454
v -0.000000 -0.226981 1.840436
v -0.000000 -0.321000 1.613455
v -0.000000 -0.226982 1.386473
v 0.000000 -0.000000 1.292454
v 0.000000 0.226981 1.386473
v 0.000000 0.321000 1.613454
v 0.000000 0.226981 1.840436
v 0.000000 -0.000000 1.934454
v -0.000000 -0.226981 1.840436
v -0.000000 -0.321000 1.613455
v -0.000000 -0.226982 1.386473
v 0.000000 -0.000000 1.292454
v 0.000000 0.226981 1.386473
v 0.000000 0.321000 1.613454
v 0.333208 0.226981 1.840436
v 0.333208 -0.000000 1.934454
v 0.333208 -0.226981 1.840436
v 0.333208 -0.321000 1.613455
v 0.333208 -0.226982 1.386473
v 0.333208 -0.000000 1.292454
v 0.333208 0.226981 1.386473
v 0.333208 0.321000 1.613454
v 0.844528 0.226981 1.833859
v 0.866997 -0.000000 1.925153
v 0.844528 -0.226981 1.833859
v 0.790284 -0.321000 1.613455
v 0.736040 -0.226982 1.393050
v 0.713571 -0.000000 1.301756
v 0.736040 0.226981 1.393050
v 0.790284 0.321000 1.613454
v 1.216387 0.226981 1.635027
v 1.282659 -0.000000 1.701717
v 1.216387 -0.226981 1.635027
v 1.056392 -0.321000 1.474024
v 0.896397 -0.226982 1.313020
v 0.830125 -0.000000 1.246330
v 0.896397 0.226981 1.313020
v 1.056392 0.321000 1.474024
v 1.418865 0.226981 1.261592
v 1.510089 -0.000000 1.284347
v 1.418865 -0.226981 1.261592
v 1.198633 -0.321000 1.206655
v 0.978400 -0.226982 1.151718
v 0.887176 -0.000000 1.128963
v 0.978400 0.226981 1.151718
v 1.198632 0.321000 1.206655
v 1.425614 0.226981 0.463422
v 1.519633 -0.000000 0.463422
v 1.425614 -0.226981 0.463422
v 1.198633 -0.321000 0.463422
v 0.971651 -0.226982 0.463422
v 0.877632 -0.000000 0.463422
v 0.971651 0.226981 0.463422
v 1.198632 0.321000 0.463422
v 1.425614 0.226981 -0.372214
v 1.519633 -0.000000 -0.372214
v 1.425614 -0.226981 -0.372214
v 1.198633 -0.321000 -0.372214
v 0.971651 -0.226982 -0.372214
v 0.877632 -0.000000 -0.372214
v 0.971651 0.226981 -0.372214
v 1.198632 0.321000 -0.372214
v 1.425614 0.226981 -0.835636
v 1.519633 0.000000 -0.835636
v 1.425614 -0.226981 -0.835636
v 1.198633 -0.321000 -0.835636
v 0.971651 -0.226981 -0.835636
v 0.877632 0.000000 -0.835636
v 0.971651 0.226981 -0.835636
v 1.198632 0.321000 -0.835636
v 1.418865 0.226982 -1.261592
v 1.510089 0.000001 -1.284347
v 1.418865 -0.226981 -1.261592
v 1.198633 -0.321000 -1.206655
v 0.978400 -0.226981 -1.151718
v 0.887176 0.000000 -1.128963
v 0.978400 0.226982 -1.151718
v 1.198632 0.321000 -1.206655
v 1.216387 0.226982 -1.635027
v 1.282659 0.000001 -1.701717
v 1.216387 -0.226981 -1.635027
v 1.056392 -0.321000 -1.474024
v 0.896398 -0.226981 -1.313020
v 0.830126 0.000000 -1.246330
v 0.896397 0.226982 -1.313020
v 1.056392 0.321000 -1.474024
v 0.844528 0.226982 -1.833859
v 0.866997 0.000001 -1.925153
v 0.844528 -0.226981 -1.833859
v 0.790284 -0.321000 -1.613455
v 0.736040 -0.226981 -1.393050
v 0.713571 0.000000 -1.301756
v 0.736040 0.226982 -1.393050
v 0.790284 0.321000 -1.613454
v 0.333208 0.226982 -1.840436
v 0.333208 0.000000 -1.934454
v 0.333208 -0.226981 -1.840436
v 0.333208 -0.321000 -1.613455
v 0.333208 -0.226981 -1.386473
v 0.333208 0.000000 -1.292454
v 0.333208 0.226982 -1.386473
v 0.333208 0.321000 -1.613454
v -0.000000 0.226982 -1.840436
v -0.000000 0.000000 -1.934454
v -0.000000 -0.226981 -1.840436
v 0.000000 -0.321000 -1.613455
v -0.000000 -0.226981 -1.386473
v -0.000000 0.000000 -1.292454
v -0.000000 0.226981 -1.386473
v -0.000000 0.321000 -1.613454
vt 1.027010 -0.603001
vt 0.939096 -0.815243
vt 1.027010 -0.727330
vt 0.939096 -0.515087
vt 0.814767 -0.815243
vt 0.814767 -0.515087
vt 0.726854 -0.727330
vt 0.726854 -0.603001
vt 0.726854 -0.427173
vt 0.814767 -0.214931
vt 0.726854 -0.302845
vt 0.814767 -0.515087
vt 0.939096 -0.214931
vt 1.027010 -0.302845
vt 0.939096 -0.515087
vt 1.027010 -0.427173
vt 0.273609 1.813005
vt 0.271443 1.632797
vt 0.408988 1.606561
vt 0.425558 1.794742
vt 0.120762 1.815243
vt 0.131914 1.641291
vt -0.029585 1.799657
vt -0.007412 1.623308
vt -0.175284 1.770975
vt -0.143196 1.589020
vt -0.318227 1.735308
vt -0.276777 1.545829
vt -0.461240 1.697196
vt -0.409550 1.503235
vt 0.576233 1.765922
vt 0.544736 1.569036
vt 0.679385 1.527936
vt 0.726854 1.731860
vt 0.244799 1.406276
vt 0.358793 1.385747
vt 0.136633 1.409189
vt 0.028646 1.400963
vt -0.084632 1.375082
vt -0.207238 1.333795
vt -0.337263 1.279843
vt 0.482503 1.349104
vt 0.613834 1.298613
vt 0.240126 1.208905
vt 0.347095 1.211580
vt 0.139746 1.206827
vt 0.039481 1.205079
vt -0.067447 1.203679
vt -0.187336 1.203304
vt -0.323054 1.202260
vt 0.466836 1.215763
vt 0.602265 1.219716
vt 0.249558 1.010534
vt 0.362060 1.036361
vt 0.142006 1.003221
vt 0.034490 1.007339
vt -0.078111 1.029512
vt -0.198597 1.071097
vt -0.323935 1.123240
vt 0.481927 1.082435
vt 0.605942 1.140007
vt 0.282682 0.700792
vt 0.416432 0.716333
vt 0.141728 0.691377
vt 0.002508 0.696384
vt -0.128266 0.708069
vt -0.251007 0.723349
vt -0.367701 0.739323
vt 0.542664 0.734901
vt 0.663427 0.754082
vt 0.293399 0.369574
vt 0.427460 0.353772
vt 0.153034 0.373165
vt 0.013060 0.364098
vt -0.120206 0.344009
vt -0.246180 0.313239
vt -0.366561 0.269497
vt 0.553591 0.325469
vt 0.671700 0.280573
vt 0.283314 0.150541
vt 0.405673 0.118804
vt 0.156870 0.162606
vt 0.029222 0.147621
vt -0.095336 0.113003
vt -0.217206 0.062864
vt -0.338585 0.002814
vt 0.524989 0.070748
vt 0.645417 0.013303
vt 0.258043 -0.043876
vt 0.365702 -0.067498
vt 0.155822 -0.038909
vt 0.053417 -0.046107
vt -0.054541 -0.072231
vt -0.172403 -0.116983
vt -0.299457 -0.170573
vt 0.483379 -0.109204
vt 0.610953 -0.158700
vt 0.253320 -0.233876
vt 0.356461 -0.233672
vt 0.156847 -0.234739
vt 0.060249 -0.236696
vt -0.043030 -0.239477
vt -0.159633 -0.243666
vt -0.292707 -0.248032
vt 0.473012 -0.234680
vt 0.606261 -0.235392
vt 0.262711 -0.420818
vt 0.371912 -0.397088
vt 0.158880 -0.428102
vt 0.054924 -0.424995
vt -0.054778 -0.405359
vt -0.174272 -0.370590
vt -0.301834 -0.324324
vt 0.490599 -0.359002
vt 0.617317 -0.310469
vt 0.295443 -0.633198
vt 0.425422 -0.602048
vt 0.162390 -0.649402
vt 0.029255 -0.641014
vt -0.102029 -0.616288
vt -0.231786 -0.581438
vt -0.361012 -0.544288
vt 0.553597 -0.562979
vt 0.681247 -0.525320
vt 0.314763 -0.801610
vt 0.453393 -0.776231
vt 0.172104 -0.815243
vt 0.027213 -0.812793
vt -0.116998 -0.795916
vt -0.260361 -0.769622
vt -0.403998 -0.738717
vt 0.589891 -0.744702
vt 0.726854 -0.711076
vn -1.0000 -0.0000 0.0000
vn 0.0000 0.9239 0.3827
vn 0.0000 0.3827 0.9239
vn -0.0000 -0.3827 0.9239
vn 0.0000 -0.9239 0.3827
vn 0.0000 -0.9239 -0.3827
vn 0.0000 -0.3827 -0.9239
vn -0.0000 0.3827 -0.9239
vn 0.0000 0.9239 -0.3827
vn 0.0026 0.9220 0.3872
vn 0.0141 0.3785 0.9255
vn 0.0141 -0.3785 0.9255
vn 0.0026 -0.9220 0.3872
vn 0.0030 -0.9217 -0.3878
vn 0.0188 -0.3771 -0.9260
vn 0.0188 0.3771 -0.9260
vn 0.0030 0.9217 -0.3878
vn 0.1850 0.9187 0.3490
vn 0.4389 0.3707 0.8185
vn 0.4389 -0.3707 0.8185
vn 0.1850 -0.9187 0.3490
vn -0.1808 -0.9186 -0.3513
vn -0.4082 -0.3702 -0.8345
vn -0.4082 0.3702 -0.8345
vn -0.1808 0.9186 -0.3513
vn 0.3480 0.9186 0.1872
vn 0.8160 0.3705 0.4436
vn 0.8160 -0.3705 0.4436
vn 0.3480 -0.9186 0.1872
vn -0.3502 -0.9186 -0.1832
vn -0.8312 -0.3701 -0.4148
vn -0.8312 0.3701 -0.4148
vn -0.3502 0.9186 -0.1832
vn 0.3874 0.9219 0.0017
vn 0.9257 0.3782 0.0093
vn 0.9257 -0.3782 0.0093
vn 0.3874 -0.9219 0.0017
vn -0.3878 -0.9217 0.0018
vn -0.9260 -0.3773 0.0111
vn -0.9260 0.3773 0.0111
vn -0.3878 0.9217 0.0018
vn 0.3827 0.9239 0.0000
vn 0.9239 0.3827 0.0000
vn 0.9239 -0.3827 0.0000
vn 0.3827 -0.9239 0.0000
vn -0.3827 -0.9239 0.0000
vn -0.9239 -0.3827 0.0000
vn -0.9239 0.3827 0.0000
vn -0.3827 0.9239 0.0000
vn 0.3873 0.9220 -0.0033
vn 0.9254 0.3785 -0.0172
vn 0.9254 -0.3785 -0.0172
vn 0.3873 -0.9220 -0.0033
vn -0.3880 -0.9217 -0.0038
vn -0.9260 -0.3766 -0.0248
vn -0.9260 0.3766 -0.0248
vn -0.3880 0.9217 -0.0038
vn 0.3480 0.9186 -0.1872
vn 0.8160 0.3705 -0.4436
vn 0.8160 -0.3705 -0.4436
vn 0.3480 -0.9186 -0.1872
vn -0.3502 -0.9186 0.1832
vn -0.8312 -0.3701 0.4148
vn -0.8312 0.3701 0.4148
vn -0.3502 0.9186 0.1832
vn 0.1850 0.9187 -0.3490
vn 0.4389 0.3707 -0.8185
vn 0.4389 -0.3707 -0.8185
vn 0.1850 -0.9187 -0.3490
vn -0.1808 -0.9186 0.3513
vn -0.4082 -0.3702 0.8345
vn -0.4082 0.3702 0.8345
vn -0.1808 0.9186 0.3513
vn 0.0026 0.9220 -0.3872
vn 0.0141 0.3785 -0.9255
vn 0.0141 -0.3785 -0.9255
vn 0.0026 -0.9220 -0.3872
vn 0.0030 -0.9217 0.3878
vn 0.0188 -0.3771 0.9260
vn 0.0188 0.3771 0.9260
vn 0.0030 0.9217 0.3878
usemtl UVgrid
s off
f 3/1/1 1/2/1 2/3/1
f 4/4/1 1/2/1 3/1/1
f 4/4/1 8/5/1 1/2/1
f 5/6/1 8/5/1 4/4/1
f 5/6/1 7/7/1 8/5/1
f 6/8/1 7/7/1 5/6/1
f 13/9/1 15/10/1 14/11/1
f 12/12/1 15/10/1 13/9/1
f 12/12/1 16/13/1 15/10/1
f 12/12/1 9/14/1 16/13/1
f 11/15/1 9/14/1 12/12/1
f 10/16/1 9/14/1 11/15/1
f 17/17/2 25/18/2 32/19/2 24/20/2
f 18/21/3 26/22/3 25/18/3 17/17/3
f 19/23/4 27/24/4 26/22/4 18/21/4
f 20/25/5 28/26/5 27/24/5 19/23/5
f 21/27/6 29/28/6 28/26/6 20/25/6
f 22/29/7 30/30/7 29/28/7 21/27/7
f 23/31/8 31/32/8 30/33/8 22/34/8
f 24/20/9 32/19/9 31/32/9 23/31/9
f 25/18/10 33/35/10 40/36/10 32/19/10
f 26/22/11 34/37/11 33/35/11 25/18/11
f 27/24/12 35/38/12 34/37/12 26/22/12
f 28/26/13 36/39/13 35/38/13 27/24/13
f 29/28/14 37/40/14 36/39/14 28/26/14
f 30/30/15 38/41/15 37/40/15 29/28/15
f 31/32/16 39/42/16 38/43/16 30/33/16
f 32/19/17 40/36/17 39/42/17 31/32/17
f 33/35/18 41/44/18 48/45/18 40/36/18
f 34/37/19 42/46/19 41/44/19 33/35/19
f 35/38/20 43/47/20 42/46/20 34/37/20
f 36/39/21 44/48/21 43/47/21 35/38/21
f 37/40/22 45/49/22 44/48/22 36/39/22
f 38/41/23 46/50/23 45/49/23 37/40/23
f 39/42/24 47/51/24 46/52/24 38/43/24
f 40/36/25 48/45/25 47/51/25 39/42/25
f 41/44/26 49/53/26 56/54/26 48/45/26
f 42/46/27 50/55/27 49/53/27 41/44/27
f 43/47/28 51/56/28 50/55/28 42/46/28
f 44/48/29 52/57/29 51/56/29 43/47/29
f 45/49/30 53/58/30 52/57/30 44/48/30
f 46/50/31 54/59/31 53/58/31 45/49/31
f 47/51/32 55/60/32 54/61/32 46/52/32
f 48/45/33 56/54/33 55/60/33 47/51/33
f 49/53/34 57/62/34 64/63/34 56/54/34
f 50/55/35 58/64/35 57/62/35 49/53/35
f 51/56/36 59/65/36 58/64/36 50/55/36
f 52/57/37 60/66/37 59/65/37 51/56/37
f 53/58/38 61/67/38 60/66/38 52/57/38
f 54/59/39 62/68/39 61/67/39 53/58/39
f 55/60/40 63/69/40 62/70/40 54/61/40
f 56/54/41 64/63/41 63/69/41 55/60/41
f 57/62/42 65/71/42 72/72/42 64/63/42
f 58/64/43 66/73/43 65/71/43 57/62/43
f 59/65/44 67/74/44 66/73/44 58/64/44
f 60/66/45 68/75/45 67/74/45 59/65/45
f 61/67/46 69/76/46 68/75/46 60/66/46
f 62/68/47 70/77/47 69/76/47 61/67/47
f 63/69/48 71/78/48 70/79/48 62/70/48
f 64/63/49 72/72/49 71/78/49 63/69/49
f 65/71/42 73/80/42 80/81/42 72/72/42
f 66/73/43 74/82/43 73/80/43 65/71/43
f 67/74/44 75/83/44 74/82/44 66/73/44
f 68/75/45 76/84/45 75/83/45 67/74/45
f 69/76/46 77/85/46 76/84/46 68/75/46
f 70/77/47 78/86/47 77/85/47 69/76/47
f 71/78/48 79/87/48 78/88/48 70/79/48
f 72/72/49 80/81/49 79/87/49 71/78/49
f 73/80/50 81/89/50 88/90/50 80/81/50
f 74/82/51 82/91/51 81/89/51 73/80/51
f 75/83/52 83/92/52 82/91/52 74/82/52
f 76/84/53 84/93/53 83/92/53 75/83/53
f 77/85/54 85/94/54 84/93/54 76/84/54
f 78/86/55 86/95/55 85/94/55 77/85/55
f 79/87/56 87/96/56 86/97/56 78/88/56
f 80/81/57 88/90/57 87/96/57 79/87/57
f 81/89/58 89/98/58 96/99/58 88/90/58
f 82/91/59 90/100/59 89/98/59 81/89/59
f 83/92/60 91/101/60 90/100/60 82/91/60
f 84/93/61 92/102/61 91/101/61 83/92/61
f 85/94/62 93/103/62 92/102/62 84/93/62
f 86/95/63 94/104/63 93/103/63 85/94/63
f 87/96/64 95/105/64 94/106/64 86/97/64
f 88/90/65 96/99/65 95/105/65 87/96/65
f 89/98/66 97/107/66 104/108/66 96/99/66
f 90/100/67 98/109/67 97/107/67 89/98/67
f 91/101/68 99/110/68 98/109/68 90/100/68
f 92/102/69 100/111/69 99/110/69 91/101/69
f 93/103/70 101/112/70 100/111/70 92/102/70
f 94/104/71 102/113/71 101/112/71 93/103/71
f 95/105/72 103/114/72 102/115/72 94/106/72
f 96/99/73 104/108/73 103/114/73 95/105/73
f 97/107/74 105/116/74 112/117/74 104/108/74
f 98/109/75 106/118/75 105/116/75 97/107/75
f 99/110/76 107/119/76 106/118/76 98/109/76
f 100/111/77 108/120/77 107/119/77 99/110/77
f 101/112/78 109/121/78 108/120/78 100/111/78
f 102/113/79 110/122/79 109/121/79 101/112/79
f 103/114/80 111/123/80 110/124/80 102/115/80
f 104/108/81 112/117/81 111/123/81 103/114/81
f 105/116/9 113/125/9 120/126/9 112/117/9
f 106/118/8 114/127/8 113/125/8 105/116/8
f 107/119/7 115/128/7 114/127/7 106/118/7
f 108/120/6 116/129/6 115/128/6 107/119/6
f 109/121/5 117/130/5 116/129/5 108/120/5
f 110/122/4 118/131/4 117/130/4 109/121/4
f 111/123/3 119/132/3 118/133/3 110/124/3
f 112/117/2 120/126/2 119/132/2 111/123/2
