# Blender v2.92.0 OBJ File: 'ladder.blend'
# www.blender.org
mtllib tuberStraight1.mtl
o tubeU.003_BezierCurve.005
v -0.226981 0.226981 -1.964622
v -0.000000 0.321000 -1.964622
v 0.226981 0.226982 -1.964622
v 0.000000 -0.321000 -1.964622
v -0.321000 -0.000000 -1.964622
v 0.226981 0.226981 -1.921016
v -0.000000 0.321000 -1.921016
v -0.321000 -0.000000 -1.921016
v -0.226981 0.226981 -1.921016
v -0.226981 -0.226981 -1.921016
v 0.321000 0.000000 -1.921016
v 0.226981 -0.226981 -1.921016
v 0.000000 -0.321000 -1.921016
v 0.321000 0.000000 -1.964622
v 0.226981 -0.226981 -1.964622
v -0.226981 -0.226981 -1.964622
v -0.000000 0.353100 -1.964622
v 0.249679 0.249680 -1.964622
v -0.249680 0.249679 -1.964622
v -0.353100 -0.000000 -1.964622
v 0.249679 -0.249679 -1.921016
v 0.353100 0.000000 -1.921016
v -0.249679 -0.249679 -1.921016
v 0.000000 -0.353100 -1.921016
v -0.353100 -0.000000 -1.921016
v 0.353100 0.000000 -1.964622
v 0.249679 -0.249679 -1.964622
v -0.249679 -0.249679 -1.964622
v 0.000000 -0.353100 -1.964622
v -0.000000 0.353100 -1.921016
v -0.249680 0.249679 -1.921016
v 0.249679 0.249680 -1.921016
v 0.208281 0.206589 -1.919956
v -0.000000 0.292861 -1.919957
v -0.294554 -0.001693 -1.919957
v -0.208281 0.206588 -1.919957
v -0.208281 -0.209974 -1.919956
v 0.294554 -0.001693 -1.919956
v 0.208281 -0.209974 -1.919957
v 0.000000 -0.296247 -1.919957
v -0.200562 0.200562 -1.964622
v -0.000000 0.283637 -1.964622
v 0.200561 0.200562 -1.964622
v 0.000000 -0.283637 -1.964622
v -0.283637 -0.000000 -1.964622
v 0.283637 0.000000 -1.964622
v 0.200562 -0.200561 -1.964622
v -0.200561 -0.200561 -1.964622
v -0.226981 0.226981 0.000000
v -0.000000 0.321000 0.000000
v 0.226981 0.226981 0.000000
v 0.000000 -0.321000 -0.000000
v -0.321000 -0.000000 -0.000000
v 0.226981 0.226981 -0.043607
v -0.000000 0.321000 -0.043607
v -0.321000 -0.000000 -0.043607
v -0.226981 0.226981 -0.043607
v -0.226981 -0.226981 -0.043607
v 0.321000 0.000000 -0.043607
v 0.226981 -0.226981 -0.043607
v 0.000000 -0.321000 -0.043607
v 0.321000 0.000000 0.000000
v 0.226981 -0.226981 -0.000000
v -0.226981 -0.226981 -0.000000
v -0.000000 0.353100 0.000000
v 0.249679 0.249680 0.000000
v -0.249680 0.249679 0.000000
v -0.353100 -0.000000 -0.000000
v 0.249679 -0.249679 -0.043607
v 0.353100 0.000000 -0.043607
v -0.249679 -0.249679 -0.043607
v 0.000000 -0.353100 -0.043607
v -0.353100 -0.000000 -0.043607
v 0.353100 0.000000 0.000000
v 0.249679 -0.249679 -0.000000
v -0.249679 -0.249679 -0.000000
v 0.000000 -0.353100 -0.000000
v -0.000000 0.353100 -0.043607
v -0.249680 0.249679 -0.043607
v 0.249679 0.249680 -0.043607
v 0.208281 0.206588 -0.044666
v -0.000000 0.292861 -0.044666
v -0.294554 -0.001693 -0.044666
v -0.208281 0.206588 -0.044666
v -0.208281 -0.209974 -0.044666
v 0.294554 -0.001693 -0.044666
v 0.208281 -0.209974 -0.044666
v 0.000000 -0.296247 -0.044666
v -0.200562 0.200561 0.000000
v -0.000000 0.283637 0.000000
v 0.200561 0.200562 0.000000
v 0.000000 -0.283637 -0.000000
v -0.283637 -0.000000 -0.000000
v 0.283637 0.000000 0.000000
v 0.200562 -0.200561 -0.000000
v -0.200561 -0.200562 -0.000000
vt -0.175207 0.618538
vt -0.244628 0.687960
vt -0.256479 0.683052
vt -0.180116 0.606687
vt 0.183700 0.855557
vt 0.253123 0.786135
vt 0.264974 0.791044
vt 0.188609 0.867409
vt -0.007604 0.687958
vt -0.077027 0.618534
vt -0.072119 0.606683
vt 0.004247 0.683048
vt 0.183700 0.618534
vt 0.085521 0.618534
vt 0.080612 0.606683
vt 0.188609 0.606683
vt 0.085522 0.855557
vt 0.080613 0.867409
vt 0.253123 0.687956
vt 0.264974 0.683048
vt -0.007604 0.786136
vt 0.004247 0.791045
vt 1.256479 0.145244
vt 1.239053 0.145244
vt 1.239053 0.037248
vt 1.256479 0.037248
vt 1.256479 0.253240
vt 1.239053 0.253240
vt 1.256479 0.361236
vt 1.239053 0.361236
vt 1.256479 0.469233
vt 1.239053 0.469233
vt 1.256479 0.577228
vt 1.239053 0.577228
vt 1.256479 0.685224
vt 1.239053 0.685224
vt 1.256479 -0.070748
vt 1.239053 -0.070749
vt 1.239054 -0.178745
vt 1.256479 -0.178745
vt -0.244628 0.786137
vt -0.256479 0.791046
vt 0.016098 0.687957
vt 0.004247 0.683048
vt 0.016100 0.786135
vt 0.004249 0.791044
vt -0.175205 0.855559
vt -0.077027 0.855559
vt -0.072118 0.867410
vt -0.180114 0.867411
vt 0.029894 0.780422
vt 0.091236 0.841763
vt 0.177986 0.632328
vt 0.091235 0.632328
vt 0.177987 0.841763
vt 0.239328 0.780421
vt 0.239328 0.693670
vt 0.029893 0.693670
vt 0.587653 -0.151924
vt 0.589068 -0.171254
vt 0.679859 -0.169448
vt 0.679017 -0.150462
vt 0.493761 -0.158891
vt 0.497374 -0.178745
vt 1.130142 -0.151647
vt 1.128772 -0.170668
vt 1.218153 -0.177780
vt 1.221627 -0.158419
vt 1.039325 -0.150188
vt 1.038524 -0.169113
vt 0.948856 -0.150279
vt 0.948406 -0.168997
vt 0.859179 -0.150619
vt 0.859194 -0.168903
vt 0.769529 -0.150424
vt 0.770013 -0.169142
vt 0.945859 0.586614
vt 1.036371 0.586653
vt -0.256479 0.213969
vt 0.493761 0.213969
vt 0.493761 0.312147
vt -0.256479 0.312147
vt 0.766533 0.586469
vt 0.856209 0.586809
vt -0.256479 0.115791
vt 0.493761 0.115791
vt 0.493762 0.594609
vt 0.585247 0.587838
vt 0.676063 0.586378
vt 1.127735 0.588114
vt -0.256479 -0.178744
vt 0.493760 -0.178745
vt 0.493761 -0.080566
vt -0.256479 -0.080566
vt -0.256479 0.017612
vt 0.493761 0.017612
vt -0.256479 0.508503
vt 0.493761 0.508504
vt 0.493760 0.606683
vt -0.256479 0.606682
vt 0.493761 0.410326
vt -0.256479 0.410325
vt 0.575034 0.626786
vt 0.570126 0.614935
vt 0.678122 0.614935
vt 0.673213 0.626787
vt 0.835761 0.626787
vt 0.830852 0.614935
vt 0.938848 0.614935
vt 0.933939 0.626787
vt 0.505612 0.794389
vt 0.493761 0.799298
vt 0.493761 0.691302
vt 0.505612 0.696211
vt 1.003361 0.794387
vt 1.015213 0.799296
vt 0.938848 0.875661
vt 0.933939 0.863810
vt 0.766338 0.696210
vt 0.754486 0.691300
vt 1.003361 0.696209
vt 1.015213 0.691300
vt 0.575034 0.863811
vt 0.570125 0.875662
vt 1.239053 0.361236
vt 1.239053 0.469232
vt 1.221627 0.469232
vt 1.221627 0.361236
vt 1.239053 0.253239
vt 1.221627 0.253239
vt 1.239053 0.145243
vt 1.221627 0.145243
vt 1.239053 0.037247
vt 1.221627 0.037247
vt 1.239053 -0.070748
vt 1.221627 -0.070748
vt 1.239053 -0.178745
vt 1.221627 -0.178745
vt 1.239053 0.577228
vt 1.239053 0.685224
vt 1.221627 0.685224
vt 1.221627 0.577228
vt 0.754486 0.691300
vt 0.742635 0.696209
vt 0.830853 0.875661
vt 0.835761 0.863810
vt 0.766338 0.794388
vt 0.754486 0.799297
vt 0.742635 0.794388
vt 0.754486 0.799297
vt 0.678121 0.875662
vt 0.673212 0.863811
vt 0.780132 0.701923
vt 0.780132 0.788675
vt 0.928225 0.850015
vt 0.989567 0.788673
vt 0.928225 0.640581
vt 0.841475 0.640581
vt 0.989567 0.701923
vt 0.841475 0.850015
vt 0.676864 0.605304
vt 0.586616 0.606858
vt 0.497236 0.613970
vt 1.221627 0.595082
vt 1.218013 0.614935
vt 1.126320 0.607444
vt 1.035528 0.605639
vt 0.945375 0.605333
vt 0.856194 0.605094
vt 0.766982 0.605188
vn 0.0000 0.0000 1.0000
vn 0.0000 0.0000 -1.0000
vn -0.9239 0.3827 0.0000
vn -0.3827 0.9239 0.0000
vn 0.3827 0.9239 0.0000
vn 0.9239 0.3827 0.0000
vn 0.9239 -0.3827 0.0000
vn 0.3827 -0.9239 0.0000
vn -0.3827 -0.9239 0.0000
vn -0.9239 -0.3827 0.0000
vn 0.8983 -0.3721 -0.2337
vn 0.3703 -0.8940 -0.2524
vn -0.3703 -0.8940 -0.2524
vn -0.8983 -0.3721 -0.2337
vn -0.9039 0.3744 -0.2067
vn -0.3759 0.9075 -0.1874
vn 0.3759 0.9075 -0.1874
vn 0.9039 0.3744 -0.2067
vn 0.8983 -0.3721 0.2337
vn 0.3703 -0.8940 0.2524
vn -0.3703 -0.8940 0.2524
vn -0.8983 -0.3721 0.2337
vn -0.9039 0.3744 0.2067
vn -0.3759 0.9075 0.1874
vn 0.3759 0.9075 0.1874
vn 0.9039 0.3744 0.2067
usemtl UVgrid
s off
f 13/1/1 10/2/1 23/3/1 24/4/1
f 14/5/2 3/6/2 18/7/2 26/8/2
f 11/9/1 12/10/1 21/11/1 22/12/1
f 1/13/2 5/14/2 20/15/2 19/16/2
f 15/17/2 14/5/2 26/8/2 27/18/2
f 2/19/2 1/13/2 19/16/2 17/20/2
f 6/21/1 11/9/1 22/12/1 32/22/1
f 31/23/3 19/24/3 20/25/3 25/26/3
f 30/27/4 17/28/4 19/24/4 31/23/4
f 32/29/5 18/30/5 17/28/5 30/27/5
f 22/31/6 26/32/6 18/30/6 32/29/6
f 21/33/7 27/34/7 26/32/7 22/31/7
f 24/35/8 29/36/8 27/34/8 21/33/8
f 23/37/9 28/38/9 29/39/9 24/40/9
f 25/26/10 20/25/10 28/38/10 23/37/10
f 10/2/1 8/41/1 25/42/1 23/3/1
f 12/10/1 13/1/1 24/4/1 21/11/1
f 5/14/2 16/43/2 28/44/2 20/15/2
f 4/45/2 15/17/2 27/18/2 29/46/2
f 16/43/2 4/45/2 29/46/2 28/44/2
f 9/47/1 7/48/1 30/49/1 31/50/1
f 7/48/1 6/21/1 32/22/1 30/49/1
f 3/6/2 2/19/2 17/20/2 18/7/2
f 8/41/1 9/47/1 31/50/1 25/42/1
f 15/17/2 4/45/2 44/51/2 47/52/2
f 5/14/2 1/13/2 41/53/2 45/54/2
f 3/6/2 14/5/2 46/55/2 43/56/2
f 2/19/2 3/6/2 43/56/2 42/57/2
f 4/45/2 16/43/2 48/58/2 44/51/2
f 16/43/2 5/14/2 45/54/2 48/58/2
f 1/13/2 2/19/2 42/57/2 41/53/2
f 14/5/2 15/17/2 47/52/2 46/55/2
f 39/59/11 47/60/11 46/61/11 38/62/11
f 40/63/12 44/64/12 47/60/12 39/59/12
f 37/65/13 48/66/13 44/67/13 40/68/13
f 35/69/14 45/70/14 48/66/14 37/65/14
f 36/71/15 41/72/15 45/70/15 35/69/15
f 34/73/16 42/74/16 41/72/16 36/71/16
f 33/75/17 43/76/17 42/74/17 34/73/17
f 38/62/18 46/61/18 43/76/18 33/75/18
f 84/77/3 36/71/3 35/69/3 83/78/3
f 55/79/4 7/80/4 9/81/4 57/82/4
f 81/83/5 33/75/5 34/73/5 82/84/5
f 54/85/5 6/86/5 7/80/5 55/79/5
f 88/87/8 40/63/8 39/59/8 87/88/8
f 82/84/4 34/73/4 36/71/4 84/77/4
f 87/88/7 39/59/7 38/62/7 86/89/7
f 83/78/10 35/69/10 37/65/10 85/90/10
f 61/91/8 13/92/8 12/93/8 60/94/8
f 59/95/6 11/96/6 6/86/6 54/85/6
f 58/97/9 10/98/9 13/99/9 61/100/9
f 86/89/6 38/62/6 33/75/6 81/83/6
f 60/94/7 12/93/7 11/96/7 59/95/7
f 57/82/3 9/81/3 8/101/3 56/102/3
f 56/102/10 8/101/10 10/98/10 58/97/10
f 61/103/2 72/104/2 71/105/2 58/106/2
f 62/107/1 74/108/1 66/109/1 51/110/1
f 59/111/2 70/112/2 69/113/2 60/114/2
f 49/115/1 67/116/1 68/117/1 53/118/1
f 63/119/1 75/120/1 74/108/1 62/107/1
f 50/121/1 65/122/1 67/116/1 49/115/1
f 54/123/2 80/124/2 70/112/2 59/111/2
f 79/125/3 73/126/3 68/127/3 67/128/3
f 78/129/4 79/125/4 67/128/4 65/130/4
f 80/131/5 78/129/5 65/130/5 66/132/5
f 70/133/6 80/131/6 66/132/6 74/134/6
f 69/135/7 70/133/7 74/134/7 75/136/7
f 72/137/8 69/135/8 75/136/8 77/138/8
f 71/139/9 72/140/9 77/141/9 76/142/9
f 73/126/10 71/139/10 76/142/10 68/127/10
f 58/106/2 71/105/2 73/143/2 56/144/2
f 60/114/2 69/113/2 72/104/2 61/103/2
f 53/118/1 68/117/1 76/145/1 64/146/1
f 52/147/1 77/148/1 75/120/1 63/119/1
f 64/146/1 76/145/1 77/148/1 52/147/1
f 57/149/2 79/150/2 78/151/2 55/152/2
f 55/152/2 78/151/2 80/124/2 54/123/2
f 51/110/1 66/109/1 65/122/1 50/121/1
f 56/144/2 73/143/2 79/150/2 57/149/2
f 63/119/1 95/153/1 92/154/1 52/147/1
f 53/118/1 93/155/1 89/156/1 49/115/1
f 51/110/1 91/157/1 94/158/1 62/107/1
f 50/121/1 90/159/1 91/157/1 51/110/1
f 52/147/1 92/154/1 96/160/1 64/146/1
f 64/146/1 96/160/1 93/155/1 53/118/1
f 49/115/1 89/156/1 90/159/1 50/121/1
f 62/107/1 94/158/1 95/153/1 63/119/1
f 87/88/19 86/89/19 94/161/19 95/162/19
f 88/87/20 87/88/20 95/162/20 92/163/20
f 85/90/21 88/164/21 92/165/21 96/166/21
f 83/78/22 85/90/22 96/166/22 93/167/22
f 84/77/23 83/78/23 93/167/23 89/168/23
f 82/84/24 84/77/24 89/168/24 90/169/24
f 81/83/25 82/84/25 90/169/25 91/170/25
f 86/89/26 81/83/26 91/170/26 94/161/26
f 85/90/9 37/65/9 40/68/9 88/164/9
